<?xml version="1.0" encoding="utf-8"?>
<!-- Generator: Adobe Illustrator 21.0.2, SVG Export Plug-In . SVG Version: 6.00 Build 0)  -->
<svg version="1.1" id="Layer_1" xmlns="http://www.w3.org/2000/svg" xmlns:xlink="http://www.w3.org/1999/xlink" x="0px" y="0px"
	 viewBox="0 0 16 16" style="enable-background:new 0 0 16 16;" xml:space="preserve">
<style type="text/css">
	.st0{fill:#00A5D5;}
</style>
<title>favicon_16px</title>
<path class="st0" d="M2.2,13.2l1.9-2.2c1.4,1,2.7,1.8,4.4,1.8c1.3,0,2.1-0.6,2.1-1.4l0,0c0-0.8-0.5-1.2-2.9-1.9
	C4.7,8.7,2.8,7.8,2.8,4.9l0,0c0-2.6,2.1-4.4,5.1-4.4c2.2,0,3.9,0.7,5.4,1.9l-1.7,2.4c-1.3-0.9-2.5-1.4-3.8-1.4S6,4,6,4.7l0,0
	C6,5.7,6.7,6,9.2,6.6c3,0.8,4.6,1.9,4.6,4.4l0,0c0,2.9-2.2,4.5-5.3,4.5C6.2,15.5,4,14.7,2.2,13.2z"/>
</svg>
